<?xml version="1.0" encoding="UTF-8"?>
<svg id="Layer_1" xmlns="http://www.w3.org/2000/svg" version="1.1" viewBox="0 0 128 128">
  <!-- Generator: Adobe Illustrator 30.1.0, SVG Export Plug-In . SVG Version: 2.1.1 Build 136)  -->
  <defs>
    <style>
      .st0 {
        fill: #21a55e;
        fill-rule: evenodd;
      }
    </style>
  </defs>
  <g id="car-2--transportation-travel-transport-car">
    <path id="Union" class="st0" d="M29.1,8.7h69.8c2.7,0,5.1,1.9,5.7,4.6h0l7.7,36.1h8c4.2,0,7.7,3.4,7.7,7.7v37c0,4.2-3.4,7.7-7.7,7.7h-9.8v14.9c0,1.4-1.1,2.5-2.5,2.5h-6.6c-1.4,0-2.5-1.1-2.5-2.5v-14.9H29.1v14.9c0,1.4-1.1,2.5-2.5,2.5h-6.5c-1.4,0-2.5-1.1-2.5-2.5v-14.9H7.7c-4.2,0-7.7-3.4-7.7-7.7v-37c0-4.2,3.4-7.7,7.7-7.7h8l7.7-36.1h0c.6-2.7,3-4.6,5.7-4.6h0ZM94.2,20.4l6.2,29.1H27.6l6.2-29.1h60.4ZM32.6,81.4h-12.8c-1.3,0-2.3-1-2.3-2.3v-7c0-1.3,1-2.3,2.3-2.3h12.8c1.3,0,2.3,1,2.3,2.3v7c0,1.3-1,2.3-2.3,2.3ZM95.4,69.8h12.8c1.3,0,2.3,1,2.3,2.3v7c0,1.3-1,2.3-2.3,2.3h-12.8c-1.3,0-2.3-1-2.3-2.3v-7c0-1.3,1-2.3,2.3-2.3Z"/>
  </g>
</svg>