<?xml version="1.0" encoding="UTF-8"?>
<svg id="Layer_1" xmlns="http://www.w3.org/2000/svg" version="1.1" viewBox="0 0 128 128">
  <!-- Generator: Adobe Illustrator 30.1.0, SVG Export Plug-In . SVG Version: 2.1.1 Build 136)  -->
  <defs>
    <style>
      .st0 {
        fill: #21a55e;
      }
    </style>
  </defs>
  <path class="st0" d="M118.9,0c-11.5,0-19.5,8.5-19.5,8.5l-24,24L31.2,16.5c-4.3-1.6-9.1-.5-12.4,2.7l-8.9,8.9,40.8,28.2c-.4.4-7.8,9.3-16.8,19.1-.5.5-1.3.8-2,.7l-15-6.9c-2.1-.8-4.5-.3-6.1,1.3L0,81.3l26.6,20.1,20.1,26.6,10.8-10.8c1.6-1.6,2.1-4,1.3-6.1l-7-15c-.1-.7.1-1.5.7-2,9.8-9,18.7-16.3,19.1-16.8l28.2,40.8,8.9-8.9c3.2-3.2,4.3-8.1,2.7-12.3l-16.1-44.1,24-24s8.6-8,8.5-19.5c0-5.1-4.1-9.1-9.1-9.1Z"/>
</svg>