<?xml version="1.0" encoding="UTF-8"?>
<svg id="Layer_1" xmlns="http://www.w3.org/2000/svg" version="1.1" viewBox="0 0 128 128">
  <!-- Generator: Adobe Illustrator 30.1.0, SVG Export Plug-In . SVG Version: 2.1.1 Build 136)  -->
  <defs>
    <style>
      .st0 {
        fill: #21a55e;
      }
    </style>
  </defs>
  <path class="st0" d="M0,12.7v102.6c0,7,5.7,12.7,12.7,12.7h102.6c7,0,12.7-5.7,12.7-12.7V12.7c0-7-5.7-12.7-12.7-12.7H12.7C5.7,0,0,5.7,0,12.7ZM59.7,88.3h0c-2.9,2.8-7.5,2.8-10.4,0l-19.7-19.7c-1.6-1.6-1.6-4.1,0-5.7l6.5-6.5c1.6-1.6,4.1-1.6,5.7,0l11.2,11.2c.9.9,2.3.9,3.1,0l30.1-30.1c1.6-1.6,4.1-1.6,5.7,0l6.5,6.5c1.6,1.6,1.6,4.1,0,5.7l-38.7,38.7h0Z"/>
</svg>