<?xml version="1.0" encoding="UTF-8"?>
<svg id="Layer_1" xmlns="http://www.w3.org/2000/svg" version="1.1" viewBox="0 0 128 128">
  <!-- Generator: Adobe Illustrator 30.1.0, SVG Export Plug-In . SVG Version: 2.1.1 Build 136)  -->
  <defs>
    <style>
      .st0 {
        fill: #21a55e;
      }
    </style>
  </defs>
  <path class="st0" d="M109.1,46.5h-5.1v-6.5c0-22.1-17.9-40-40-40S24,17.9,24,40v6.5h-5.1c-4.3,0-7.8,3.5-7.8,7.8v66c0,4.3,3.5,7.8,7.8,7.8h90.2c4.3,0,7.8-3.5,7.8-7.8V54.3c0-4.3-3.5-7.8-7.8-7.8h0ZM37.6,40c0-14.6,11.8-26.4,26.4-26.4s26.4,11.8,26.4,26.4v6.5h-52.9v-6.5h0ZM72.6,101.5c.2,1.4-.9,2.6-2.3,2.6h-12.6c-1.4,0-2.5-1.2-2.3-2.6l1.5-11.7c-1.7-1.8-2.8-4.2-2.8-6.9,0-5.5,4.4-9.9,9.9-9.9s9.9,4.4,9.9,9.9-1.1,5.1-2.8,6.9l1.5,11.7Z"/>
</svg>