<?xml version="1.0" encoding="UTF-8"?>
<svg id="Layer_1" xmlns="http://www.w3.org/2000/svg" version="1.1" viewBox="0 0 128 128">
  <!-- Generator: Adobe Illustrator 30.1.0, SVG Export Plug-In . SVG Version: 2.1.1 Build 136)  -->
  <defs>
    <style>
      .st0 {
        fill: #21a55e;
        fill-rule: evenodd;
      }
    </style>
  </defs>
  <g id="graph-dot--product-data-bars-analysis-analytics-graph-business-chart-dot">
    <path id="Union" class="st0" d="M11.1,88.3v25.8h108.3c1.7,0,3,1.3,3,3v5.1c0,1.7-1.3,3-3,3H4c-2.2,0-4-1.8-4-4V5.8c0-1.7,1.3-3,3-3h5.1c1.7,0,3,1.3,3,3v66.8l12.7-12.6c-1.2-2.4-1.7-5.2-1.6-8.1.5-8.4,7.4-15.2,15.8-15.7,9.6-.5,17.6,7.2,17.6,16.7s-.2,3.2-.7,4.7l15.3,13.8c2.3-1.2,4.9-1.8,7.6-1.8s3.4.3,5,.8l15.9-28.7c-2.9-3.3-4.6-7.8-4.1-12.6.7-8.1,7.4-14.6,15.5-15.1,10.1-.6,18.5,7.7,17.8,17.9-.6,8.2-7.2,14.8-15.4,15.4-1.4,0-2.8,0-4.1-.2l-16.7,30c1.9,2.8,2.9,6.2,2.7,9.9-.4,9.1-7.7,16-16.8,16-9.2,0-16.6-7.5-16.6-16.7s.5-4.7,1.4-6.8l-14.2-12.8c-2.7,1.8-5.9,2.9-9.5,2.9s-5.1-.6-7.3-1.7l-20.6,20.3h0Z"/>
  </g>
</svg>