<?xml version="1.0" encoding="UTF-8"?>
<svg id="Layer_1" xmlns="http://www.w3.org/2000/svg" version="1.1" viewBox="0 0 128 128">
  <!-- Generator: Adobe Illustrator 30.1.0, SVG Export Plug-In . SVG Version: 2.1.1 Build 136)  -->
  <defs>
    <style>
      .st0 {
        fill: #21a55e;
        fill-rule: evenodd;
      }
    </style>
  </defs>
  <path class="st0" d="M126.8,51.4C120,13.1,75.4-10.7,39.8,5,9.4,16.8-7.5,53.2,3.2,84c26.7,75.6,137.6,46.1,123.6-32.6ZM85.9,53.1h-10.9v-3.7c0-1-.8-1.8-1.8-1.8h-18.2c-1,0-1.8.8-1.8,1.8v3.3c0,.8.6,1.6,1.4,1.8l21.4,4.8c5.8,1.3,10,6.5,10,12.5v6.9c0,7.1-5.7,12.8-12.8,12.8h-3.7v9.1h-10.9v-9.1h-3.6c-7,0-12.8-5.7-12.8-12.8v-3.7h10.9v3.7c0,1,.8,1.8,1.8,1.8h18.2c1,0,1.8-.8,1.8-1.8v-6.9c0-.8-.6-1.6-1.4-1.8l-21.4-4.8c-5.8-1.3-10-6.5-10-12.5v-3.3c0-7,5.7-12.8,12.8-12.8h3.7v-9.1h10.9v9.1h3.7c7.1,0,12.8,5.7,12.8,12.8,0,0,0,3.7,0,3.6Z"/>
</svg>