<?xml version="1.0" encoding="UTF-8"?>
<svg id="Layer_1" xmlns="http://www.w3.org/2000/svg" version="1.1" viewBox="0 0 128 128">
  <!-- Generator: Adobe Illustrator 30.1.0, SVG Export Plug-In . SVG Version: 2.1.1 Build 136)  -->
  <defs>
    <style>
      .st0 {
        fill: #21a55e;
      }
    </style>
  </defs>
  <path class="st0" d="M92.1,47v55h20.7v-55s-20.7,0-20.7,0ZM53.6,47v55h20.7v-55s-20.7,0-20.7,0ZM15.1,47v55h20.7v-55s-20.7,0-20.7,0ZM124.1,17.2L67.4.5c-2.2-.7-4.6-.7-6.9,0L3.9,17.2c-2.3.7-3.9,2.8-3.9,5.2v16.6h128v-16.6c0-2.4-1.6-4.5-3.9-5.2ZM64,26.4c-3.8,0-6.8-3-6.8-6.8s3-6.8,6.8-6.8,6.8,3,6.8,6.8-3.1,6.8-6.8,6.8ZM0,109.7v12.4c0,3.3,2.7,5.9,5.9,5.9h116.1c3.3,0,5.9-2.7,5.9-5.9v-12.4s-128,0-128,0Z"/>
</svg>