<?xml version="1.0" encoding="UTF-8"?>
<svg id="Layer_1" xmlns="http://www.w3.org/2000/svg" version="1.1" viewBox="0 0 128 128">
  <!-- Generator: Adobe Illustrator 30.1.0, SVG Export Plug-In . SVG Version: 2.1.1 Build 136)  -->
  <defs>
    <style>
      .st0 {
        fill: #21a55e;
      }
    </style>
  </defs>
  <path class="st0" d="M44.8,108c2.3,2,4.7,4.1,7.1,6.3,0,0,0,0,0,0l8.1,7c1.1.9,2.5,1.4,3.8,1.4s2.7-.5,3.8-1.4l8.2-7s0,0,0,0c16.1-14.3,28.2-25.2,37-35.9,10.2-12.4,15-23.7,15-35.4,0-21.2-16.6-37.8-37.8-37.8s-18.9,3.6-26.2,9.8c-7.2-6.2-16.7-9.8-26.2-9.8C16.6,5.2,0,21.8,0,43s17.8,41.3,44.8,65h0ZM56.2,52.4v-13.3c0-1.2,1-2.2,2.2-2.2h11.1c1.2,0,2.2,1,2.2,2.2v13.3h13.3c1.2,0,2.2,1,2.2,2.2v11.1c0,1.2-1,2.2-2.2,2.2h-13.3v13.3c0,1.2-1,2.2-2.2,2.2h-11.1c-1.2,0-2.2-1-2.2-2.2v-13.3h-13.3c-1.2,0-2.2-1-2.2-2.2v-11.1c0-1.2,1-2.2,2.2-2.2,0,0,13.3,0,13.3,0Z"/>
</svg>