<?xml version="1.0" encoding="UTF-8"?>
<svg id="Layer_1" xmlns="http://www.w3.org/2000/svg" version="1.1" viewBox="0 0 128 128">
  <!-- Generator: Adobe Illustrator 30.1.0, SVG Export Plug-In . SVG Version: 2.1.1 Build 136)  -->
  <defs>
    <style>
      .st0 {
        fill: #21a55e;
        fill-rule: evenodd;
      }
    </style>
  </defs>
  <path class="st0" d="M32.6,66.2c-15.1-2.7-29.5,7.4-32.2,22.5-.3,1.6-.4,3.2-.4,4.8v31.9h61.2l66.3-13.9v-5.2c0-8.8-7.1-15.9-15.9-15.9h-4.8c-1.5,0-2.9.2-4.4.5l-35.4,7.6h0c0,0-28.7,0-28.7,0v-9.6h34.2v-7c0-5.5-4-10.1-9.4-11l-30.5-4.6h0ZM38.8,39.1v11.8H0v-11.8c0-2,1-3.9,2.7-5.1,4.9-3.3,10.7-5.1,16.6-5,5.9,0,11.7,1.8,16.6,5,1.7,1.1,2.7,3,2.7,5.1h0ZM29.8,11.4c1.2,7.2-5,13.4-12.2,12.2-4.4-.7-7.9-4.2-8.6-8.6C7.8,7.7,13.9,1.6,21.2,2.8c4.4.7,7.9,4.3,8.6,8.6ZM83.4,39.1v11.8h-38.8v-11.8c0-2,1-3.9,2.7-5.1,4.9-3.3,10.7-5.1,16.6-5,5.9,0,11.7,1.8,16.7,5,1.7,1.1,2.7,3,2.7,5.1h0ZM74.4,11.4c1.2,7.2-5,13.4-12.2,12.2-4.4-.7-7.9-4.2-8.6-8.6-1.2-7.2,5-13.4,12.2-12.2,4.4.7,7.9,4.2,8.6,8.6ZM128,39.1v11.8h-38.8v-11.8c0-2,1-3.9,2.7-5.1,4.9-3.3,10.7-5.1,16.7-5,5.9,0,11.7,1.8,16.7,5,1.7,1.1,2.7,3,2.7,5.1h0ZM119,11.4c1.2,7.2-5,13.4-12.2,12.2-4.4-.7-7.9-4.2-8.6-8.6-1.2-7.2,5-13.4,12.2-12.2,4.4.7,7.9,4.2,8.6,8.6Z"/>
</svg>