<?xml version="1.0" encoding="UTF-8"?>
<svg id="Layer_1" xmlns="http://www.w3.org/2000/svg" version="1.1" viewBox="0 0 128 128">
  <!-- Generator: Adobe Illustrator 30.1.0, SVG Export Plug-In . SVG Version: 2.1.1 Build 136)  -->
  <defs>
    <style>
      .st0 {
        fill: #21a55e;
      }
    </style>
  </defs>
  <path d="M14.7,30.3v37.5c0,.2,0,.4,0,.7V30.1c0,0,0,.1,0,.2Z"/>
  <path class="st0" d="M109.4,25.9h0c-4.8-.6-12.6-1.7-16.7-3.3-5.1-2-9.7-4.7-13.7-8-1.1-.9-2.1-1.8-3-2.8-1.4-1.4-2.6-2.8-3.8-4.3-1.5-1.9-2.8-2.9-3.9-5,0,0,0,0,0-.1-1.7-3.2-6.3-3.2-8,0,0,0,0,0,0,.1-1,2-2.3,2.9-3.7,4.7-1.3,1.8-2.8,3.4-4.4,5-.9.8-1.8,1.6-2.7,2.4-4,3.3-8.5,6-13.6,7.9-4.2,1.6-12.3,2.8-17.2,3.3-2.2.2-3.8,2.1-4,4.2v38.4c.2,18.2,7.9,33.7,20.1,44.8,1.7,1.6,3.6,3.1,5.5,4.5,6.5,4.8,13.9,8.2,22,10.1.6.1,1.2.1,1.8,0,8.5-1.7,16.4-5.2,23.3-10.1,2-1.4,3.8-2.9,5.6-4.5,12.5-11.3,20.5-27.2,20.5-45.8V30.3c0-2.3-1.7-4.2-3.9-4.4ZM90.5,58.9l-12.3,12.3-17.5,17.5h0c-.7.7-1.6,1.2-2.5,1.4-.5.1-1,.2-1.5.2-1.4,0-2.9-.6-4-1.7l-15.2-15.2c-1.2-1.2-1.2-3.2,0-4.4l5-5c1.2-1.2,3.2-1.2,4.4,0l5.8,5.8,2.8,2.8c.7.7,1.7.7,2.4,0l11.2-11.2,12-12c1.2-1.2,3.1-1.2,4.4,0l5,5c1.2,1.2,1.2,3.2,0,4.4Z"/>
</svg>