<?xml version="1.0" encoding="UTF-8"?>
<svg id="Layer_1" xmlns="http://www.w3.org/2000/svg" version="1.1" viewBox="0 0 128 128">
  <!-- Generator: Adobe Illustrator 30.1.0, SVG Export Plug-In . SVG Version: 2.1.1 Build 136)  -->
  <defs>
    <style>
      .st0 {
        fill: #21a55e;
        fill-rule: evenodd;
      }
    </style>
  </defs>
  <path class="st0" d="M108,40.2l-.3.3c0,0,0,.1.1.2l.4-.2c0-.1-.1-.2-.2-.3ZM82.3,6.4l-4.7,7.2c-.8,1.3-2.3,1.9-3.8,1.6-3.2-.7-6.6-1-10-1-27.5,0-49.8,22.3-49.8,49.8s2.1,16.5,5.9,23.5c0,.1.1.2.2.3l.3-.3,4.1-4.1c1.3-1.3,3.3-1.3,4.6,0l2,2c.9.9,1.4,2.1,1.4,3.4v19.8c0,2.1-1.7,3.8-3.8,3.8H8.9c-1.3,0-2.5-.5-3.4-1.4l-2-2c-1.3-1.3-1.3-3.3,0-4.6l6.2-6.2C2.8,87.4-.9,74.4-.2,60.5,1.6,28.1,27.8,1.9,60.2.1c7.1-.4,14,.4,20.5,2.2,1.8.5,2.6,2.6,1.5,4.1ZM128.1,67.8c-1.9,32.7-28.8,59-61.5,60.2-7.3.3-14.3-.7-20.9-2.7-1.7-.5-2.5-2.6-1.5-4.1l4.6-7.1c.8-1.3,2.4-1.9,4-1.6,4.7,1.1,9.7,1.6,14.8,1.2,25-1.7,45.1-22.1,46.3-47.1.5-9.5-1.7-18.3-5.8-26,0-.1-.1-.2-.2-.3l-.3.3-4.1,4.1c-1.3,1.3-3.3,1.3-4.6,0l-2-2c-.9-.9-1.4-2.1-1.4-3.4v-19.8c0-2.1,1.7-3.8,3.8-3.8h19.8c1.3,0,2.5.5,3.4,1.4l2,2c1.3,1.3,1.3,3.3,0,4.6l-6.2,6.2c6.9,10.9,10.6,24,9.8,38h0ZM87.1,47.5l-23.1,11.5-23.1-11.5c.3-.2,17.2-8.6,17.3-8.6.5-.2,1-.4,1.6-.6h0c.4-.1.8-.2,1.2-.3.4,0,.8-.2,1.2-.2.6,0,1.1,0,1.7,0s1.1,0,1.7,0c.4,0,.8.1,1.2.2s.8.2,1.2.3c.5.2,1.1.3,1.6.6,0,0,0,0,0,0,0,0,0,0,0,0,0,0,0,0,0,0,0,0,.1,0,.2.1,0,0,.1,0,.2,0,.1,0,16.7,8.3,16.7,8.3h0ZM36.4,54.7v23.6l23.5,12.1v-24.2l-23.5-11.4ZM68.1,66.1v24.2l23.5-12.1v-23.6l-23.5,11.4Z"/>
</svg>