<?xml version="1.0" encoding="UTF-8"?>
<svg id="Layer_1" xmlns="http://www.w3.org/2000/svg" version="1.1" viewBox="0 0 128 128">
  <!-- Generator: Adobe Illustrator 30.1.0, SVG Export Plug-In . SVG Version: 2.1.1 Build 136)  -->
  <defs>
    <style>
      .st0 {
        fill: #21a55e;
      }
    </style>
  </defs>
  <path class="st0" d="M37.5,113.4h53c1.4,0,2.6,1.2,2.6,2.6v6.4c0,1.4-1.2,2.6-2.6,2.6h-53c-1.4,0-2.6-1.2-2.6-2.6v-6.4c0-1.4,1.2-2.6,2.6-2.6ZM20.3,93.1h87.4c1.6,0,2.8,1.3,2.8,2.8v6c0,1.6-1.3,2.8-2.8,2.8H20.3c-1.6,0-2.8-1.3-2.8-2.8v-6c0-1.6,1.3-2.8,2.8-2.8ZM120.2,2.9H7.8C3.5,2.9,0,6.4,0,10.7v65.9c0,4.3,3.5,7.8,7.8,7.8h112.4c4.3,0,7.8-3.5,7.8-7.8V10.7c0-4.3-3.5-7.8-7.8-7.8ZM81.2,34.9h-8.5v-2.8c0-.8-.6-1.4-1.4-1.4h-14.2c-.8,0-1.4.6-1.4,1.4v2.5c0,.7.5,1.2,1.1,1.4l16.7,3.7c4.6,1,7.8,5,7.8,9.7v5.4c0,5.5-4.4,10-9.9,10h-2.8v7.1h-8.5v-7.1h-2.8c-5.5,0-10-4.5-10-10v-2.8h8.5v2.8c0,.8.6,1.4,1.4,1.4h14.2c.8,0,1.4-.6,1.4-1.4v-5.4c0-.7-.5-1.2-1.1-1.4l-16.7-3.7c-4.5-1-7.8-5-7.8-9.7v-2.5c0-5.5,4.5-10,10-10h2.8v-7.1h8.5v7.1h2.8c5.5,0,10,4.5,10,10v2.8Z"/>
</svg>