<?xml version="1.0" encoding="UTF-8"?>
<svg id="Layer_1" xmlns="http://www.w3.org/2000/svg" version="1.1" viewBox="0 0 128 128">
  <!-- Generator: Adobe Illustrator 30.1.0, SVG Export Plug-In . SVG Version: 2.1.1 Build 136)  -->
  <defs>
    <style>
      .st0 {
        fill: #21a55e;
      }
    </style>
  </defs>
  <path class="st0" d="M110.8,11.9c0,4.9-17.8,11.9-46.8,11.9s-46.8-6.9-46.8-11.9S35,0,64,0h0s0,0,0,0C93,0,110.8,6.9,110.8,11.9ZM108.8,60.5c-.8.5-1.8,1.1-2.7,1.6-2.2,1.2-4.9,2.2-7.8,3.2-.5.1-.9.3-1.4.4l-.5.2c-.4.1-.8.2-1.2.3-.3,0-.5.1-.8.2-.3,0-.6.2-1,.2-.3,0-.7.2-1.1.3-.3,0-.5.1-.8.2-.4,0-.9.2-1.3.3h0s-.6.1-.6.1c-.5,0-1,.2-1.5.3h-.1s-.4.1-.4.1c-.6,0-1.1.2-1.7.3h-.2s-.3,0-.3,0c-.6,0-1.2.2-1.8.3h-.1s-.2,0-.2,0c-.6,0-1.3.2-1.9.3h-.1s-.2,0-.2,0l-2,.2h-.1s-.2,0-.2,0c-.7,0-1.3.1-2,.2h-.1s-.2,0-.2,0c-.7,0-1.3.1-2,.2h-.2s-.2,0-.2,0c-.7,0-1.4,0-2,.1h-.2s-.2,0-.2,0c-.7,0-1.4,0-2,0h-.5c-.7,0-1.4,0-2.1,0h-.2s-.3,0-.3,0c-.8,0-1.7,0-2.5,0s-1.7,0-2.5,0h-.4c-.7,0-1.4,0-2.1,0h-.3s-.2,0-.2,0c-.7,0-1.4,0-2,0h-.2s-.2,0-.2,0c-.7,0-1.4,0-2-.1h-.2s-.2,0-.2,0c-.7,0-1.4,0-2-.2h-.2s-.1,0-.1,0c-.7,0-1.4-.1-2-.2h-.2s-.1,0-.1,0c-.7,0-1.3-.1-2-.2h-.2s-.1,0-.1,0c-.6,0-1.3-.2-1.9-.3h-.2s-.1,0-.1,0c-.6,0-1.2-.2-1.8-.3h-.3c0,0-.2,0-.2,0-.6,0-1.1-.2-1.7-.3h-.4c0,0-.1-.1-.1-.1-.5,0-1-.2-1.5-.3h-.6c0-.1,0-.1,0-.1-.4,0-.9-.2-1.3-.3-.3,0-.5-.1-.8-.2-.4,0-.7-.2-1.1-.3-.3,0-.7-.2-1-.2-.3,0-.5-.1-.8-.2-.4-.1-.8-.2-1.2-.3l-.5-.2c-.5-.1-.9-.3-1.4-.4-3-.9-5.6-2-7.8-3.2-1-.5-1.9-1-2.7-1.6-.7-.5-1.4-1-2-1.5v20.3c0,6.7,19.2,14.2,46.8,14.2s46.8-7.5,46.8-14.2v-20.3c-.6.5-1.3,1-2,1.5ZM74.8,103.9c-.4,0-.8,0-1.2,0-.6,0-1.1,0-1.7,0h-.8c-.6,0-1.2,0-1.8.1-.3,0-.7,0-1,0h-.2s-.3,0-.3,0c-.4,0-.8,0-1.2,0-.9,0-1.8,0-2.7,0s-1.8,0-2.7,0c-.4,0-.8,0-1.2,0h-.5c-.3,0-.7,0-1,0-.6,0-1.2,0-1.8,0h-.8c-.6,0-1.2-.1-1.7-.1-.4,0-.8,0-1.2,0-14.5-1.1-29-4.6-36-10.4v20.3c0,4.2,8.4,10,27,12.8h.6c.3.1.7.2,1,.2.4,0,.8.1,1.2.2.4,0,.7,0,1.1.1.4,0,.8,0,1.2.1.4,0,.8,0,1.2.1h.1c.3,0,.7,0,1,.1.4,0,.8,0,1.2.1h.3c.3,0,.5,0,.8,0,.4,0,.8,0,1.3,0h.1s.3,0,.3,0c.2,0,.5,0,.7,0,.5,0,.9,0,1.4,0h.5c.2,0,.4,0,.6,0,.6,0,1.2,0,1.8,0h.7c.8,0,1.7,0,2.6,0s1.7,0,2.6,0h.4s.3,0,.3,0c.6,0,1.2,0,1.8,0,.2,0,.4,0,.6,0h.4s.1,0,.1,0c.5,0,.9,0,1.4,0,.2,0,.5,0,.7,0h.3s.1,0,.1,0c.4,0,.8,0,1.3,0,.3,0,.6,0,.8,0h.3s0,0,0,0c.4,0,.8,0,1.2-.1.3,0,.7,0,1,0h.1c.4,0,.8,0,1.2-.1.4,0,.8,0,1.2-.1.4,0,.7,0,1.1-.1.4,0,.8-.1,1.2-.2.3,0,.6,0,1-.1h.6c18.6-2.9,27-8.7,27-12.9v-20.3c-6.9,5.8-21.5,9.3-36,10.4ZM64,34.9c-21.2,0-39-4.3-46.8-10.8v20.3c0,6.7,19.2,14.2,46.8,14.2s46.8-7.5,46.8-14.2v-20.3c-7.8,6.5-25.6,10.8-46.8,10.8ZM88.4,7.4c-5.1,0-9.2,1.5-9.2,3.3s4.1,3.3,9.2,3.3,9.2-1.5,9.2-3.3-4.1-3.3-9.2-3.3Z"/>
</svg>