<?xml version="1.0" encoding="UTF-8"?>
<svg id="Layer_1" xmlns="http://www.w3.org/2000/svg" version="1.1" viewBox="0 0 128 128">
  <!-- Generator: Adobe Illustrator 30.1.0, SVG Export Plug-In . SVG Version: 2.1.1 Build 136)  -->
  <defs>
    <style>
      .st0 {
        fill: #21a55e;
        fill-rule: evenodd;
      }
    </style>
  </defs>
  <path class="st0" d="M127.5,66.5l-20.2-46.2,14.1-4.2c1.3-.4,2.1-1.8,1.7-3.2l-1.9-6.2c-.4-1.3-1.8-2.1-3.2-1.7l-48.2,14.5v-10.1c0-1.3-1.1-2.4-2.4-2.4h-6.8c-1.3,0-2.4,1.1-2.4,2.4v13.6L6.6,38.3c-1.3.4-2.1,1.8-1.7,3.2l1.9,6.2c.4,1.3,1.8,2.1,3.2,1.7l9.4-2.8L.5,89.7l-.5,1.1v14.9c0,1.3.4,2.5,1.2,3.5h0s0,0,0,0h0c0,0,.1.2.1.2l.4.5c.3.4.8.9,1.4,1.6,1.2,1.3,3,3,5.4,4.7,4.6,3.4,11.6,6.9,20.5,6.9s15.9-3.6,20.5-6.9c2.5-1.8,4.8-3.9,6.8-6.3.1-.2.3-.3.4-.5v-.2c.1,0,.2,0,.2,0h0c.8-1,1.2-2.3,1.2-3.5v-14.9l-.5-1.1-21.1-48.2,51.4-15.4-17.7,40.4-.5,1.1v14.9c0,1.3.4,2.5,1.2,3.5h0s0,0,0,0v.2c.1,0,.5.5.5.5.3.4.8.9,1.4,1.6,1.2,1.3,3,3,5.4,4.7,4.6,3.4,11.6,6.9,20.5,6.9s15.9-3.6,20.5-6.9c2.5-1.8,4.8-3.9,6.8-6.3.1-.2.3-.3.4-.5v-.2c.1,0,.2,0,.2,0h0c.8-1,1.2-2.3,1.2-3.5v-14.9l-.5-1.1h0ZM45.6,91.2H12.6l16.5-37.8,16.5,37.8ZM82.4,67.9l16.5-37.8,16.5,37.8h-33.1Z"/>
</svg>