<?xml version="1.0" encoding="UTF-8"?>
<svg id="Layer_1" xmlns="http://www.w3.org/2000/svg" version="1.1" viewBox="0 0 128 128">
  <!-- Generator: Adobe Illustrator 30.1.0, SVG Export Plug-In . SVG Version: 2.1.1 Build 136)  -->
  <defs>
    <style>
      .st0 {
        fill: #21a55e;
        fill-rule: evenodd;
      }
    </style>
  </defs>
  <g id="office-worker--office-worker-human-resources">
    <path id="Union" class="st0" d="M33.5,34.9c9.6,0,17.4-7.8,17.4-17.4S43.1,0,33.5,0s-17.4,7.8-17.4,17.4,7.8,17.4,17.4,17.4ZM33.5,43.6c-9.8,0-19.4,2.9-27.5,8.3-2.8,1.9-4.5,5-4.5,8.3v25.3c0,4.1,3.3,7.5,7.5,7.5h7.1s0,0,0,0v28.5c0,3.5,2.9,6.4,6.4,6.4h22.1c3.5,0,6.4-2.9,6.4-6.4v-39c0-2.9,2.3-5.2,5.2-5.2h9.3s0,0,0,0v-16.9c0-3.4-1.7-6.5-4.5-8.3-8.1-5.4-17.7-8.4-27.5-8.3h0ZM97.4,68.5c-10.3-.8-18.8,7.5-18.8,17.9v1s0,0,0,0h-7c-3.3,0-6,2.7-6,6v28.6c0,3.3,2.7,6,6,6h49c3.3,0,6-2.7,6-6v-28.6c0-3.3-2.7-6-6-6h-7s0,0,0,0v-1.5c0-9.2-7.1-16.7-16-17.4ZM101.8,87.3v-1.2c0-3.2-2.5-6-5.7-6.1-3.3,0-6,2.6-6,5.8v1.5s0,0,0,0h11.6s0,0,0,0Z"/>
  </g>
</svg>