<?xml version="1.0" encoding="UTF-8"?>
<svg id="Layer_1" xmlns="http://www.w3.org/2000/svg" version="1.1" viewBox="0 0 128 128">
  <!-- Generator: Adobe Illustrator 30.1.0, SVG Export Plug-In . SVG Version: 2.1.1 Build 136)  -->
  <defs>
    <style>
      .st0 {
        fill: #21a55e;
      }
    </style>
  </defs>
  <path class="st0" d="M68.9,88.5l-19.6,19.6s0,0,0,0c0,0,0,0,0,0-8.1,8.1-21.3,8.1-29.4,0-3.9-3.9-6.1-9.1-6.1-14.7s2.2-10.8,6.1-14.7c0,0,0,0,0,0l19.6-19.6c2.7-2.7,2.7-7.1,0-9.8-2.7-2.7-7.1-2.7-9.8,0l-19.6,19.6s0,0,0,0C3.6,75.4,0,84.1,0,93.4s3.6,17.9,10.1,24.5c6.7,6.7,15.6,10.1,24.5,10.1s17.7-3.4,24.5-10.1h0s0,0,0,0l19.6-19.6c2.7-2.7,2.7-7.1,0-9.8-2.7-2.7-7.1-2.7-9.8,0Z"/>
  <path class="st0" d="M128,34.6c0-9.2-3.6-17.9-10.1-24.5-13.5-13.5-35.5-13.5-49,0,0,0,0,0,0,0l-19.6,19.6c-2.7,2.7-2.7,7.1,0,9.8,1.4,1.4,3.1,2,4.9,2s3.5-.7,4.9-2l19.6-19.6s0,0,0,0c8.1-8.1,21.3-8.1,29.4,0,3.9,3.9,6.1,9.1,6.1,14.7s-2.2,10.8-6.1,14.7c0,0,0,0,0,0l-19.6,19.6c-2.7,2.7-2.7,7.1,0,9.8s3.1,2,4.9,2,3.5-.7,4.9-2l19.6-19.6s0,0,0,0c6.5-6.5,10.1-15.2,10.1-24.5Z"/>
  <path class="st0" d="M39.5,88.5c1.4,1.4,3.1,2,4.9,2s3.5-.7,4.9-2l39.2-39.2c2.7-2.7,2.7-7.1,0-9.8-2.7-2.7-7.1-2.7-9.8,0l-39.2,39.2c-2.7,2.7-2.7,7.1,0,9.8Z"/>
</svg>